<svg xmlns="http://www.w3.org/2000/svg" xmlns:xlink="http://www.w3.org/1999/xlink" width="500" zoomAndPan="magnify" viewBox="0 0 375 374.999991" height="500" preserveAspectRatio="xMidYMid meet" version="1.0"><defs><clipPath id="d5bafb91e3"><path d="M 0.761719 5 L 199 5 L 199 371 L 0.761719 371 Z M 0.761719 5 " clip-rule="nonzero"/></clipPath><clipPath id="4100c928eb"><path d="M 158 1.695312 L 374.261719 1.695312 L 374.261719 372.945312 L 158 372.945312 Z M 158 1.695312 " clip-rule="nonzero"/></clipPath><clipPath id="b6d3a512fd"><path d="M 166 72 L 304 72 L 304 372.945312 L 166 372.945312 Z M 166 72 " clip-rule="nonzero"/></clipPath></defs><g clip-path="url(#d5bafb91e3)"><path fill="#617fe7" d="M 111.742188 335.246094 C 92.96875 297.253906 107.65625 250.613281 144.816406 230.242188 C 162.070312 220.78125 181.203125 218.402344 198.980469 222.03125 L 86.597656 5.484375 L 90.640625 28.761719 C 36.757812 61.515625 0.769531 120.777344 0.769531 188.445312 C 0.769531 277.453125 63.042969 351.914062 146.398438 370.644531 C 131.898438 363.121094 119.5625 351.078125 111.742188 335.246094 " fill-opacity="1" fill-rule="nonzero"/></g><g clip-path="url(#4100c928eb)"><path fill="#52595c" d="M 187.515625 1.695312 C 177.554688 1.695312 167.785156 2.480469 158.25 3.980469 C 224.730469 13.453125 280.757812 50.582031 303.4375 80.679688 C 254.601562 66.773438 153.363281 69.882812 168.195312 98.46875 L 253.316406 262.476562 C 274.371094 303.042969 257.710938 353.457031 216.140625 372.449219 C 215.503906 372.738281 214.867188 373.019531 214.230469 373.292969 C 304.710938 360.328125 374.257812 282.511719 374.257812 188.445312 C 374.257812 85.304688 290.648438 1.695312 187.515625 1.695312 " fill-opacity="1" fill-rule="nonzero"/></g><g clip-path="url(#b6d3a512fd)"><path fill="#2d3748" d="M 216.140625 372.449219 C 215.503906 372.738281 214.867188 373.019531 214.230469 373.292969 C 214.902344 373.132812 215.582031 372.96875 216.257812 372.796875 C 260.515625 361.390625 288.238281 313.824219 272.144531 271.046875 C 257.433594 231.945312 204.433594 118.257812 204.433594 118.257812 C 187.167969 83.320312 252.980469 78.136719 303.4375 80.679688 C 254.601562 66.773438 153.363281 69.882812 168.195312 98.46875 L 253.316406 262.476562 C 274.371094 303.042969 257.710938 353.457031 216.140625 372.449219 " fill-opacity="1" fill-rule="nonzero"/></g></svg>